<?xml version="1.0" encoding="utf-8"?>
<!-- Generator: Adobe Illustrator 28.2.0, SVG Export Plug-In . SVG Version: 6.00 Build 0)  -->
<svg version="1.1" id="Laag_1" xmlns="http://www.w3.org/2000/svg" xmlns:xlink="http://www.w3.org/1999/xlink" x="0px" y="0px"
	 viewBox="0 0 107.72 62.36" style="enable-background:new 0 0 107.72 62.36;" xml:space="preserve">
<style type="text/css">
	.st0{fill:#FCF5BE;}
</style>
<g>
	<path class="st0" d="M90.92,4.89c0.25-0.22,0.79-0.42,1.63-0.58l13.09-0.67V1.97H45.23v16.61h2.34c1.28-3.73,2.43-6.51,3.46-8.35
		s2.46-3.26,4.3-4.26s4.4-1.5,7.68-1.5h10.52v51.67c0,0.61-0.13,1.03-0.38,1.25s-0.79,0.42-1.63,0.58l-3.59,0.75v1.67h27.71v-1.67
		l-3.09-0.67c-0.84-0.17-1.38-0.36-1.63-0.58s-0.38-0.64-0.38-1.25V6.14C90.55,5.53,90.68,5.11,90.92,4.89z"/>
	<path class="st0" d="M56.69,52.13c-1.03,1.84-2.46,3.26-4.3,4.26s-4.4,1.5-7.68,1.5H34.19V6.22c0-0.61,0.13-1.03,0.38-1.25
		s0.79-0.42,1.63-0.58l3.59-0.75V1.97H12.08v1.67l3.09,0.67c0.84,0.17,1.38,0.36,1.63,0.58s0.38,0.64,0.38,1.25v50.08
		c0,0.61-0.13,1.03-0.38,1.25s-0.79,0.42-1.63,0.58L2.08,58.73v1.67H62.5V43.78h-2.34C58.87,47.51,57.72,50.3,56.69,52.13z"/>
</g>
</svg>
